<svg version="1.1" id="Layer_1" xmlns="http://www.w3.org/2000/svg" xmlns:xlink="http://www.w3.org/1999/xlink" x="0px" y="0px"
	 width="100%" viewBox="0 0 72 73" enable-background="new 0 0 72 73" xml:space="preserve">
<path fill="#090909" opacity="1.000000" stroke="none" 
	d="
M41.000000,74.000000 
	C27.333334,74.000000 14.166667,74.000000 1.000000,74.000000 
	C1.000000,49.666668 1.000000,25.333334 1.000000,1.000000 
	C25.000000,1.000000 49.000000,1.000000 73.000000,1.000000 
	C73.000000,25.333334 73.000000,49.666668 73.000000,74.000000 
	C62.500000,74.000000 52.000000,74.000000 41.000000,74.000000 
M69.983978,18.098095 
	C69.983978,14.092798 69.983978,10.087502 69.983978,6.088754 
	C65.216774,10.594230 60.757172,14.808987 56.022011,19.921549 
	C56.022011,32.184170 56.022011,44.446793 56.022011,57.032227 
	C44.078754,57.032227 32.630074,56.980350 21.182924,57.089378 
	C19.508175,57.105331 17.368666,57.378197 16.256559,58.408798 
	C12.616380,61.782158 9.351300,65.560287 5.395421,69.349274 
	C5.184988,69.834129 4.974555,70.318993 4.764120,70.803856 
	C5.510038,70.809402 6.255956,70.814957 7.928225,70.970993 
	C28.591858,70.970993 49.255493,70.970993 69.813622,70.970993 
	C69.813622,53.195683 69.813622,36.104824 69.983978,18.098095 
M39.471451,46.031509 
	C41.086124,46.031509 42.700802,46.031509 44.181503,46.031509 
	C44.181503,38.739502 44.181503,32.009003 44.181503,25.296818 
	C37.335865,25.296818 30.782482,25.296818 24.303385,25.296818 
	C24.303385,32.332031 24.303385,39.060799 24.303385,46.031509 
	C29.212830,46.031509 33.843002,46.031509 39.471451,46.031509 
z"/>
<path fill="#D9A44E" opacity="1.000000" stroke="none" 
	d="
M5.942003,69.182793 
	C9.351300,65.560287 12.616380,61.782158 16.256559,58.408798 
	C17.368666,57.378197 19.508175,57.105331 21.182924,57.089378 
	C32.630074,56.980350 44.078754,57.032227 56.022011,57.032227 
	C56.022011,44.446793 56.022011,32.184170 56.604080,19.474174 
	C61.395306,19.022522 65.604462,19.018246 69.813622,19.013969 
	C69.813622,36.104824 69.813622,53.195683 69.813622,70.970993 
	C49.255493,70.970993 28.591858,70.970993 7.243924,70.457947 
	C6.353751,69.690857 6.147877,69.436821 5.942003,69.182793 
z"/>
<path fill="#D9A44E" opacity="1.000000" stroke="none" 
	d="
M38.972313,46.031509 
	C33.843002,46.031509 29.212830,46.031509 24.303385,46.031509 
	C24.303385,39.060799 24.303385,32.332031 24.303385,25.296818 
	C30.782482,25.296818 37.335865,25.296818 44.181503,25.296818 
	C44.181503,32.009003 44.181503,38.739502 44.181503,46.031509 
	C42.700802,46.031509 41.086124,46.031509 38.972313,46.031509 
z"/>
<path fill="#D9A44E" opacity="1.000000" stroke="none" 
	d="
M69.898804,18.556032 
	C65.604462,19.018246 61.395306,19.022522 56.741859,19.025270 
	C60.757172,14.808987 65.216774,10.594230 69.983978,6.088754 
	C69.983978,10.087502 69.983978,14.092798 69.898804,18.556032 
z"/>
<path fill="#D9A44E" opacity="1.000000" stroke="none" 
	d="
M5.668713,69.266037 
	C6.147877,69.436821 6.353751,69.690857 6.780749,70.382706 
	C6.255956,70.814957 5.510038,70.809402 4.764121,70.803848 
	C4.974555,70.318993 5.184988,69.834129 5.668713,69.266037 
z"/>
</svg>