<svg version="1.1" id="Layer_1" xmlns="http://www.w3.org/2000/svg" xmlns:xlink="http://www.w3.org/1999/xlink" x="0px" y="0px" width="100%" viewBox="0 0 182 163" enable-background="new 0 0 182 163" xml:space="preserve">
	<path fill="#090809" opacity="1.000000" stroke="none" d="M183.000000,76.000000 C183.000000,105.314644 183.000000,134.629288 183.000000,163.971970 C122.390686,163.971970 61.781353,163.971970 1.086010,163.971970 C1.086010,109.758743 1.086010,55.517307 1.086010,1.137935 C61.666462,1.137935 122.333183,1.137935 183.000000,1.137935 C183.000000,24.759464 183.000000,48.411076 182.688995,72.328819 C181.912643,71.003494 181.363159,69.431252 180.994720,67.817657 C176.628815,48.697685 172.329025,29.562490 167.906616,10.455663 C167.143372,7.158071 166.764587,2.771587 161.945496,3.275197 C157.011612,3.790801 157.688156,8.040350 157.906052,11.497665 C158.951462,28.084822 160.065521,44.667686 161.177979,61.250553 C161.444824,65.228271 161.703537,69.210556 162.136551,73.172089 C162.682022,78.162323 165.388092,81.532112 170.333221,82.664673 C174.898865,83.710320 178.439285,81.963676 180.982834,78.041069 C181.492432,77.255150 182.319366,76.675011 183.000000,76.000000 M158.731506,114.778366 C156.536758,99.312607 153.879242,83.893585 152.310699,68.364578 C151.273132,58.092194 148.534149,48.882912 142.157272,40.721867 C130.224548,25.450502 114.335258,15.110697 98.168800,5.095867 C94.071625,2.557739 89.916931,2.896553 85.974785,5.357467 C72.403099,13.829693 59.086483,22.629642 47.908707,34.284176 C38.045506,44.568066 32.481274,56.437584 32.253883,70.960258 C31.970819,89.038979 28.651304,106.719292 23.341433,123.995918 C21.778772,129.080307 23.146292,132.637512 27.683365,135.379288 C41.638340,143.812408 55.477024,152.438095 69.438927,160.859589 C76.573586,165.163025 82.079132,162.135818 82.114288,153.875031 C82.207146,132.056290 82.097000,110.236679 82.190460,88.417931 C82.207458,84.448761 80.492065,82.267616 76.824173,81.120453 C70.330734,79.089577 63.880447,76.919556 57.424099,74.771706 C54.152008,73.683174 51.582703,71.844460 52.369534,67.923668 C53.107388,64.246964 55.783672,62.967377 59.400352,62.974918 C81.385956,63.020763 103.371765,63.023827 125.357338,62.971199 C128.947083,62.962608 131.665298,64.012741 132.325623,67.853630 C132.994720,71.745567 130.617981,73.653511 127.301506,74.757835 C121.158134,76.803474 115.078087,79.080132 108.844955,80.801849 C104.217728,82.079987 102.432152,84.588066 102.469345,89.381241 C102.633446,110.532875 102.553505,131.686523 102.527534,152.839401 C102.523087,156.455902 102.803276,159.869598 106.376320,161.956467 C110.015320,164.081848 113.085396,162.422882 116.140343,160.556229 C128.491592,153.009323 140.856934,145.485413 153.192093,137.912308 C163.350555,131.675568 163.333130,131.650620 160.080551,119.923378 C159.680145,118.479790 159.311234,117.027481 158.731506,114.778366 M27.000811,9.752624 C27.297577,6.355054 26.210558,3.177402 22.589502,3.371435 C20.704216,3.472458 17.828907,6.171648 17.348482,8.166339 C12.375812,28.812542 7.749457,49.543118 3.145068,70.276497 C1.704195,76.764687 4.793166,81.857468 10.417033,82.890930 C16.347557,83.980743 21.562073,80.270882 22.131685,73.651901 C23.937744,52.665318 25.394485,31.648678 27.000811,9.752624 Z"/>
	<path fill="#1C1D1D" opacity="1.000000" stroke="none" d="M183.000000,75.625000 C182.319366,76.675011 181.492432,77.255150 180.982834,78.041069 C178.439285,81.963676 174.898865,83.710320 170.333221,82.664673 C165.388092,81.532112 162.682022,78.162323 162.136551,73.172089 C161.703537,69.210556 161.444824,65.228271 161.177979,61.250553 C160.065521,44.667686 158.951462,28.084822 157.906052,11.497665 C157.688156,8.040350 157.011612,3.790801 161.945496,3.275197 C166.764587,2.771587 167.143372,7.158071 167.906616,10.455663 C172.329025,29.562490 176.628815,48.697685 180.994720,67.817657 C181.363159,69.431252 181.912643,71.003494 182.688995,72.797478 C183.000000,73.750000 183.000000,74.500000 183.000000,75.625000 Z"/>
	<path fill="#1C1D1D" opacity="1.000000" stroke="none" d="M158.829620,115.178787 C159.311234,117.027481 159.680145,118.479790 160.080551,119.923378 C163.333130,131.650620 163.350555,131.675568 153.192093,137.912308 C140.856934,145.485413 128.491592,153.009323 116.140343,160.556229 C113.085396,162.422882 110.015320,164.081848 106.376320,161.956467 C102.803276,159.869598 102.523087,156.455902 102.527534,152.839401 C102.553505,131.686523 102.633446,110.532875 102.469345,89.381241 C102.432152,84.588066 104.217728,82.079987 108.844955,80.801849 C115.078087,79.080132 121.158134,76.803474 127.301506,74.757835 C130.617981,73.653511 132.994720,71.745567 132.325623,67.853630 C131.665298,64.012741 128.947083,62.962608 125.357338,62.971199 C103.371765,63.023827 81.385956,63.020763 59.400352,62.974918 C55.783672,62.967377 53.107388,64.246964 52.369534,67.923668 C51.582703,71.844460 54.152008,73.683174 57.424099,74.771706 C63.880447,76.919556 70.330734,79.089577 76.824173,81.120453 C80.492065,82.267616 82.207458,84.448761 82.190460,88.417931 C82.097000,110.236679 82.207146,132.056290 82.114288,153.875031 C82.079132,162.135818 76.573586,165.163025 69.438927,160.859589 C55.477024,152.438095 41.638340,143.812408 27.683365,135.379288 C23.146292,132.637512 21.778772,129.080307 23.341433,123.995918 C28.651304,106.719292 31.970819,89.038979 32.253883,70.960258 C32.481274,56.437584 38.045506,44.568066 47.908707,34.284176 C59.086483,22.629642 72.403099,13.829693 85.974785,5.357467 C89.916931,2.896553 94.071625,2.557739 98.168800,5.095867 C114.335258,15.110697 130.224548,25.450502 142.157272,40.721867 C148.534149,48.882912 151.273132,58.092194 152.310699,68.364578 C153.879242,83.893585 156.536758,99.312607 158.829620,115.178787 Z"/>
	<path fill="#1C1D1D" opacity="1.000000" stroke="none" d="M26.993546,10.198141 C25.394485,31.648678 23.937744,52.665318 22.131685,73.651901 C21.562073,80.270882 16.347557,83.980743 10.417033,82.890930 C4.793166,81.857468 1.704195,76.764687 3.145068,70.276497 C7.749457,49.543118 12.375812,28.812542 17.348482,8.166339 C17.828907,6.171648 20.704216,3.472458 22.589502,3.371435 C26.210558,3.177402 27.297577,6.355054 26.993546,10.198141 Z"/>
</svg>
