<svg version="1.1" id="Layer_1" xmlns="http://www.w3.org/2000/svg" xmlns:xlink="http://www.w3.org/1999/xlink" x="0px" y="0px"
	 width="100%" viewBox="0 0 59 60" enable-background="new 0 0 59 60" xml:space="preserve">
<path fill="#0C0B09" opacity="1.000000" stroke="none" 
	d="
M28.000000,61.000000 
	C19.016853,61.000000 10.033707,61.000000 1.025280,61.000000 
	C1.025280,41.054329 1.025280,21.108624 1.025280,1.081458 
	C20.575264,1.081458 40.150925,1.081458 59.863300,1.081458 
	C59.863300,20.999413 59.863300,40.999554 59.863300,61.000000 
	C50.903568,61.000000 41.920444,61.000000 32.213428,60.652031 
	C36.678871,42.983524 28.420525,13.632673 16.262449,7.112554 
	C18.943802,15.967948 22.542265,24.486328 20.508802,34.895130 
	C17.505440,26.769949 12.473507,22.090961 5.105003,19.516663 
	C4.751553,19.718208 4.569562,20.121778 4.523155,20.853905 
	C7.110374,27.303165 10.226302,33.260990 11.780976,39.601620 
	C12.823923,43.855206 14.296228,47.338501 17.320034,50.325916 
	C20.900465,53.863255 24.441748,57.440216 28.000000,61.000000 
M43.605610,33.273777 
	C40.297855,39.553722 38.120827,46.052242 39.132324,54.013283 
	C45.124989,49.537079 49.553795,45.412430 50.364475,38.127182 
	C50.824028,33.997398 53.155487,30.064150 54.725628,26.074560 
	C55.537712,24.011114 56.528107,22.017841 58.023479,18.689640 
	C50.894978,22.359228 47.177517,27.249519 43.605610,33.273777 
M40.194180,30.612780 
	C42.034748,22.213434 43.875313,13.814088 45.708298,5.449341 
	C34.701836,14.096570 31.790173,24.968311 37.640934,37.651058 
	C38.574932,35.233406 39.312950,33.323044 40.194180,30.612780 
z"/>
<path fill="#D9A44E" opacity="1.000000" stroke="none" 
	d="
M28.399996,61.000000 
	C24.441748,57.440216 20.900465,53.863255 17.320034,50.325916 
	C14.296228,47.338501 12.823923,43.855206 11.780976,39.601620 
	C10.226302,33.260990 7.110374,27.303165 4.748716,20.655918 
	C4.984616,19.992477 5.130539,19.855583 5.276463,19.718687 
	C12.473507,22.090961 17.505440,26.769949 20.508802,34.895130 
	C22.542265,24.486328 18.943802,15.967948 16.262449,7.112554 
	C28.420525,13.632673 36.678871,42.983524 31.744770,60.652031 
	C30.933331,61.000000 29.866661,61.000000 28.399996,61.000000 
z"/>
<path fill="#D8A34D" opacity="1.000000" stroke="none" 
	d="
M43.756119,32.932381 
	C47.177517,27.249519 50.894978,22.359228 58.023479,18.689640 
	C56.528107,22.017841 55.537712,24.011114 54.725628,26.074560 
	C53.155487,30.064150 50.824028,33.997398 50.364475,38.127182 
	C49.553795,45.412430 45.124989,49.537079 39.132324,54.013283 
	C38.120827,46.052242 40.297855,39.553722 43.756119,32.932381 
z"/>
<path fill="#CD9B4A" opacity="1.000000" stroke="none" 
	d="
M40.122574,31.012730 
	C39.312950,33.323044 38.574932,35.233406 37.640934,37.651058 
	C31.790173,24.968311 34.701836,14.096570 45.708298,5.449341 
	C43.875313,13.814088 42.034748,22.213434 40.122574,31.012730 
z"/>
<path fill="#D9A44E" opacity="1.000000" stroke="none" 
	d="
M4.613132,20.327360 
	C4.569562,20.121778 4.751553,19.718208 5.105003,19.516663 
	C5.130539,19.855583 4.984616,19.992477 4.613132,20.327360 
z"/>
</svg>