<svg version="1.1" id="Layer_1" xmlns="http://www.w3.org/2000/svg" xmlns:xlink="http://www.w3.org/1999/xlink" x="0px" y="0px"
	 width="100%" viewBox="0 0 64 64" enable-background="new 0 0 64 64" xml:space="preserve">
<path fill="#0B0B0B" opacity="1.000000" stroke="none" 
	d="
M34.000000,65.000000 
	C22.687866,65.000000 11.875731,65.000000 1.031798,65.000000 
	C1.031798,43.729649 1.031798,22.459242 1.031798,1.094417 
	C22.228270,1.094417 43.457100,1.094417 64.842964,1.094417 
	C64.842964,22.332422 64.842964,43.666092 64.842964,65.000000 
	C54.793522,65.000000 44.646763,65.000000 34.000000,65.000000 
M36.407791,51.213299 
	C32.686935,54.835304 28.966080,58.457306 24.500828,62.803928 
	C29.564568,62.803928 33.301243,62.803928 37.962841,62.929970 
	C45.882519,62.929970 53.802200,62.929970 61.734253,62.929970 
	C61.734253,50.450813 61.734253,38.431747 61.734253,26.443083 
	C52.551872,32.183304 47.926567,39.970909 51.030155,51.368320 
	C45.666653,51.368320 41.364868,51.368320 36.407791,51.213299 
M28.882927,14.351249 
	C32.416237,10.792086 35.949547,7.232922 39.935772,3.217527 
	C35.276546,3.217527 31.630625,3.217527 27.063587,3.044545 
	C19.147545,3.044545 11.231503,3.044545 3.207634,3.044545 
	C3.207634,15.505113 3.207634,27.522152 3.207634,39.611149 
	C12.061710,33.697479 17.185829,26.191269 13.846314,14.581767 
	C19.339106,14.581767 23.778196,14.581767 28.882927,14.351249 
M20.558846,55.062889 
	C32.593147,42.878460 44.356636,30.407433 56.796703,18.652414 
	C61.686958,14.031457 62.879326,9.338361 61.629700,3.395700 
	C54.875492,1.807701 49.821945,3.619520 44.946392,8.878580 
	C33.083462,21.674631 20.862751,34.187630 8.100406,46.078640 
	C2.551742,51.248474 2.535115,56.607048 3.348513,62.878040 
	C12.542439,63.184223 12.542439,63.184223 20.558846,55.062889 
z"/>
<path fill="#D9A44E" opacity="1.000000" stroke="none" 
	d="
M20.310013,55.315659 
	C12.542439,63.184223 12.542439,63.184223 3.348513,62.878040 
	C2.535115,56.607048 2.551742,51.248474 8.100406,46.078640 
	C20.862751,34.187630 33.083462,21.674631 44.946392,8.878580 
	C49.821945,3.619520 54.875492,1.807701 61.629700,3.395700 
	C62.879326,9.338361 61.686958,14.031457 56.796703,18.652414 
	C44.356636,30.407433 32.593147,42.878460 20.310013,55.315659 
z"/>
<path fill="#D9A44E" opacity="1.000000" stroke="none" 
	d="
M28.217287,14.581767 
	C23.778196,14.581767 19.339106,14.581767 13.846314,14.581767 
	C17.185829,26.191269 12.061710,33.697479 3.207634,39.611149 
	C3.207634,27.522152 3.207634,15.505113 3.207634,3.044545 
	C11.231503,3.044545 19.147545,3.044545 27.519672,3.586125 
	C28.056269,7.612392 28.136778,11.097080 28.217287,14.581767 
z"/>
<path fill="#D9A44E" opacity="1.000000" stroke="none" 
	d="
M37.063080,51.368320 
	C41.364868,51.368320 45.666653,51.368320 51.030155,51.368320 
	C47.926567,39.970909 52.551872,32.183304 61.734253,26.443083 
	C61.734253,38.431747 61.734253,50.450813 61.734253,62.929970 
	C53.802200,62.929970 45.882519,62.929970 37.488525,62.424412 
	C37.030499,58.402008 37.046791,54.885166 37.063080,51.368320 
z"/>
<path fill="#D9A44E" opacity="1.000000" stroke="none" 
	d="
M36.735435,51.290810 
	C37.046791,54.885166 37.030499,58.402008 37.026062,62.361389 
	C33.301243,62.803928 29.564568,62.803928 24.500828,62.803928 
	C28.966080,58.457306 32.686935,54.835304 36.735435,51.290810 
z"/>
<path fill="#D9A44E" opacity="1.000000" stroke="none" 
	d="
M28.550106,14.466508 
	C28.136778,11.097080 28.056269,7.612392 27.980232,3.672616 
	C31.630625,3.217527 35.276546,3.217527 39.935772,3.217527 
	C35.949547,7.232922 32.416237,10.792086 28.550106,14.466508 
z"/>
</svg>