<svg version="1.1" id="Layer_1" xmlns="http://www.w3.org/2000/svg" xmlns:xlink="http://www.w3.org/1999/xlink" x="0px" y="0px"
	 width="100%" viewBox="0 0 63 58" enable-background="new 0 0 63 58" xml:space="preserve">
<path fill="#0A0A0A" opacity="1.000000" stroke="none" 
	d="
M31.000000,59.000000 
	C21.039589,59.000000 11.079179,59.000000 1.059384,59.000000 
	C1.059384,39.782940 1.059384,20.565668 1.059384,1.000000 
	C8.350508,1.000000 15.706517,1.000000 23.823559,1.290349 
	C23.645853,3.261722 22.707111,4.942746 21.764261,6.631125 
	C25.271847,10.350945 28.511526,13.786647 31.997946,17.484020 
	C35.621735,13.561407 38.924629,9.986145 41.826881,6.844569 
	C41.075287,4.440065 40.537643,2.720033 40.000000,1.000000 
	C47.968899,1.000000 55.937801,1.000000 63.953350,1.000000 
	C63.953350,20.226988 63.953350,39.454109 63.953350,59.000000 
	C53.981358,59.000000 43.959339,59.000000 33.122746,58.762932 
	C33.604427,57.056877 34.678951,55.266369 36.243977,54.187141 
	C39.319664,52.066170 39.653275,49.505413 38.852055,46.123089 
	C36.954273,38.111717 35.330402,30.035463 33.595798,21.985437 
	C33.172363,21.764406 32.748932,21.543375 32.325497,21.322344 
	C31.432032,22.568781 30.050053,23.700827 29.726906,25.080814 
	C28.033028,32.314468 26.733448,39.640686 25.027195,46.871105 
	C24.332294,49.815815 24.923954,51.822845 27.207304,53.818474 
	C28.779856,55.192875 29.756838,57.248718 31.000000,59.000000 
M18.098764,22.083538 
	C18.256279,22.220041 18.413795,22.356546 18.169184,23.067345 
	C16.932537,24.885012 15.695891,26.702679 14.346782,28.685650 
	C17.772959,30.156698 20.635220,31.385626 23.957064,32.811878 
	C25.101156,29.399742 26.213079,26.149405 27.279625,22.884243 
	C28.353903,19.595404 24.999287,13.412383 21.589146,13.231543 
	C15.405354,12.903614 9.191710,13.138583 2.311611,13.138583 
	C7.599641,19.807402 10.294611,21.209106 18.098764,22.083538 
M37.510391,25.112783 
	C38.378811,27.593561 39.247227,30.074339 40.170830,32.712761 
	C43.478619,31.299923 46.426628,30.040758 49.638798,28.668764 
	C47.845940,26.088024 46.366596,23.958570 44.201908,20.842592 
	C52.359253,22.908726 56.963383,19.071264 61.863316,13.134263 
	C55.613636,13.134263 50.500282,13.115144 45.387123,13.138922 
	C38.408360,13.171374 35.103580,17.733751 37.510391,25.112783 
z"/>
<path fill="#D9A44E" opacity="1.000000" stroke="none" 
	d="
M31.333332,59.000000 
	C29.756838,57.248718 28.779856,55.192875 27.207304,53.818474 
	C24.923954,51.822845 24.332294,49.815815 25.027195,46.871105 
	C26.733448,39.640686 28.033028,32.314468 29.726906,25.080814 
	C30.050053,23.700827 31.432032,22.568781 32.325497,21.322344 
	C32.748932,21.543375 33.172363,21.764406 33.595798,21.985437 
	C35.330402,30.035463 36.954273,38.111717 38.852055,46.123089 
	C39.653275,49.505413 39.319664,52.066170 36.243977,54.187141 
	C34.678951,55.266369 33.604427,57.056877 32.654087,58.762932 
	C32.555557,59.000000 32.111111,59.000000 31.333332,59.000000 
z"/>
<path fill="#D9A44E" opacity="1.000000" stroke="none" 
	d="
M39.533138,1.000000 
	C40.537643,2.720033 41.075287,4.440065 41.826881,6.844569 
	C38.924629,9.986145 35.621735,13.561407 31.997946,17.484020 
	C28.511526,13.786647 25.271847,10.350945 21.764261,6.631125 
	C22.707111,4.942746 23.645853,3.261722 24.292297,1.290349 
	C29.022093,1.000000 34.044186,1.000000 39.533138,1.000000 
z"/>
<path fill="#D9A44E" opacity="1.000000" stroke="none" 
	d="
M17.651600,21.646454 
	C10.294611,21.209106 7.599641,19.807402 2.311611,13.138583 
	C9.191710,13.138583 15.405354,12.903614 21.589146,13.231543 
	C24.999287,13.412383 28.353903,19.595404 27.279625,22.884243 
	C26.213079,26.149405 25.101156,29.399742 23.957064,32.811878 
	C20.635220,31.385626 17.772959,30.156698 14.346782,28.685650 
	C15.695891,26.702679 16.932537,24.885012 18.501575,22.566559 
	C18.439842,21.925999 18.045721,21.786226 17.651600,21.646454 
z"/>
<path fill="#D9A44E" opacity="1.000000" stroke="none" 
	d="
M37.371933,24.734335 
	C35.103580,17.733751 38.408360,13.171374 45.387123,13.138922 
	C50.500282,13.115144 55.613636,13.134263 61.863316,13.134263 
	C56.963383,19.071264 52.359253,22.908726 44.201908,20.842592 
	C46.366596,23.958570 47.845940,26.088024 49.638798,28.668764 
	C46.426628,30.040758 43.478619,31.299923 40.170830,32.712761 
	C39.247227,30.074339 38.378811,27.593561 37.371933,24.734335 
z"/>
<path fill="#D9A44E" opacity="1.000000" stroke="none" 
	d="
M17.875183,21.864996 
	C18.045721,21.786226 18.439842,21.925999 18.702637,22.279411 
	C18.413795,22.356546 18.256279,22.220041 17.875183,21.864996 
z"/>
</svg>