<svg version="1.1" id="Layer_1" xmlns="http://www.w3.org/2000/svg" xmlns:xlink="http://www.w3.org/1999/xlink" x="0px" y="0px"
	 width="100%" viewBox="0 0 72 73" enable-background="new 0 0 72 73" xml:space="preserve">
<path fill="#090909" opacity="1.000000" stroke="none"
	d="
M48.000038,74.000000 
	C32.000019,74.000000 16.500023,74.000000 1.000019,74.000000 
	C1.000012,49.666679 1.000012,25.333355 1.000006,1.000025 
	C24.999987,1.000017 48.999973,1.000017 72.999969,1.000008 
	C72.999985,25.333315 72.999985,49.666630 72.999992,73.999969 
	C64.833351,74.000000 56.666702,74.000000 48.000038,74.000000 
M66.070518,4.028862 
	C45.407173,4.028862 24.743828,4.028862 4.186386,4.028862 
	C4.186386,21.804592 4.186386,38.895309 4.016012,56.901897 
	C4.016012,60.907204 4.016012,64.912506 4.016012,68.911102 
	C8.783167,64.405724 13.242794,60.190990 17.977974,55.078442 
	C17.977974,42.836815 17.977974,30.595184 17.977974,17.967754 
	C29.161051,17.967754 39.914692,17.793270 50.657017,18.065460 
	C54.259544,18.156740 57.027836,17.143267 59.432320,14.720539 
	C62.348000,11.782743 65.198196,8.779960 68.621323,5.639153 
	C68.824181,5.156089 69.027031,4.673025 69.229889,4.189960 
	C68.485588,4.185815 67.741280,4.181670 66.070518,4.028862 
M45.373791,50.006733 
	C46.810757,50.006733 48.247723,50.006733 49.737019,50.006733 
	C49.737019,42.755756 49.737019,36.027939 49.737019,29.216709 
	C42.920155,29.216709 36.347099,29.216709 29.771761,29.216709 
	C29.771761,36.198933 29.771761,42.930573 29.771761,50.006737 
	C34.802349,50.006737 39.599079,50.006737 45.373791,50.006733 
z"/>
<path fill="#FFFFFF" opacity="1.000000" stroke="none" 
	d="
M4.186386,55.986027 
	C4.186386,38.895309 4.186386,21.804592 4.186386,4.028862 
	C24.743828,4.028862 45.407173,4.028862 66.759933,4.539157 
	C67.658478,5.301400 67.867599,5.553348 68.076729,5.805295 
	C65.198196,8.779960 62.348000,11.782743 59.432320,14.720539 
	C57.027836,17.143267 54.259544,18.156740 50.657017,18.065460 
	C39.914692,17.793270 29.161051,17.967754 17.977974,17.967754 
	C17.977974,30.595184 17.977974,42.836815 17.395906,55.525810 
	C12.604688,55.977459 8.395536,55.981743 4.186386,55.986027 
z"/>
<path fill="#FFFFFF" opacity="1.000000" stroke="none" 
	d="
M44.884796,50.006737 
	C39.599079,50.006737 34.802349,50.006737 29.771761,50.006737 
	C29.771761,42.930573 29.771761,36.198933 29.771761,29.216709 
	C36.347099,29.216709 42.920155,29.216709 49.737019,29.216709 
	C49.737019,36.027939 49.737019,42.755756 49.737019,50.006733 
	C48.247723,50.006733 46.810757,50.006733 44.884796,50.006737 
z"/>
<path fill="#FFFFFF" opacity="1.000000" stroke="none" 
	d="
M4.101199,56.443962 
	C8.395536,55.981743 12.604688,55.977459 17.258129,55.974712 
	C13.242794,60.190990 8.783167,64.405724 4.016012,68.911102 
	C4.016012,64.912506 4.016012,60.907204 4.101199,56.443962 
z"/>
</svg>